<?xml version="1.0" standalone="no"?>
<!DOCTYPE svg PUBLIC "-//W3C//DTD SVG 20010904//EN"
 "http://www.w3.org/TR/2001/REC-SVG-20010904/DTD/svg10.dtd">
<svg version="1.0" xmlns="http://www.w3.org/2000/svg"
 width="235.000000pt" height="225.000000pt" viewBox="0 0 235.000000 225.000000"
 preserveAspectRatio="xMidYMid meet">
<g transform="translate(15.000000,225.000000) scale(0.02500000,-0.02500000)"
fill="#000000" stroke="none">
<path d="M2620 6852 l0 -1767 90 -90 90 -90 85 85 85 85 0 1592 0 1593 2730 0
2730 0 0 -2345 0 -2345 -2730 0 -2730 0 0 99 0 99 -47 -14 c-61 -18 -187 -18
-249 1 -27 8 -50 15 -51 15 -2 0 -3 -126 -3 -280 l0 -280 3080 0 c2926 0 3080
1 3081 18 0 9 1 1225 1 2702 l1 2685 -3082 3 -3081 2 0 -1768z"/>
<path d="M3370 6720 l0 -1030 660 0 660 0 0 80 0 80 -580 0 -580 0 0 390 0
390 135 0 135 0 0 75 0 75 -135 0 -135 0 0 400 0 400 465 0 465 0 0 -400 0
-400 -95 0 -95 0 0 -75 0 -75 210 0 210 0 0 75 0 75 -35 0 -35 0 0 400 0 400
305 0 305 0 0 -400 0 -400 -39 0 -39 0 4 -62 c1 -35 3 -69 3 -75 1 -8 15 -13
36 -13 l35 0 0 -390 0 -390 -34 0 c-39 0 -41 -4 -41 -90 l0 -65 118 -3 117 -3
0 1031 0 1030 -1010 0 -1010 0 0 -1030z"/>
<path d="M6400 6227 c-217 -221 -542 -552 -722 -735 l-328 -333 61 -75 c33
-41 64 -74 67 -74 4 0 37 29 72 65 35 36 68 65 72 65 4 0 8 -290 8 -645 l0
-645 1170 0 1170 0 0 645 c0 382 4 645 9 645 5 0 36 -29 69 -65 33 -36 64 -65
70 -65 11 0 122 134 122 148 0 8 -1426 1465 -1439 1469 -3 2 -184 -178 -401
-400z m348 -599 l-3 -221 -206 229 -206 228 206 214 206 214 3 -221 c1 -122 1
-321 0 -443z m346 416 l177 -181 -192 -214 c-105 -118 -200 -223 -210 -234
-19 -19 -19 -11 -19 430 l0 450 33 -35 c19 -19 113 -117 211 -216z m-723 -374
c57 -63 146 -162 199 -220 l95 -105 -212 -3 c-117 -1 -307 -1 -422 0 l-210 3
216 223 c119 122 219 221 223 220 4 -2 54 -55 111 -118z m1198 -328 c-115 -1
-303 -1 -418 0 l-209 3 201 223 201 224 216 -224 217 -223 -208 -3z m-1412
-174 c-10 -36 -201 -498 -207 -498 -5 0 -198 464 -207 499 -5 21 -4 21 207 21
l212 0 -5 -22z m573 11 c0 -6 -11 -37 -25 -68 -13 -31 -58 -139 -100 -241 -42
-102 -80 -188 -84 -192 -5 -6 -132 288 -203 469 l-16 43 214 0 c152 0 214 -3
214 -11z m580 -124 l0 -135 -230 0 -230 0 0 135 0 135 230 0 230 0 0 -135z
m-1121 -472 l-1 -488 -25 55 c-14 30 -53 125 -88 210 -35 85 -70 171 -78 190
-15 35 -14 38 59 215 99 237 128 305 131 305 2 0 3 -219 2 -487z m200 235 c50
-120 91 -225 91 -233 0 -22 -183 -465 -192 -465 -5 0 -8 210 -8 467 0 293 4
463 9 458 6 -6 51 -108 100 -227z m359 -472 l-3 -233 -97 235 -97 236 97 235
97 236 3 -238 c1 -130 1 -342 0 -471z m-921 459 l92 -224 -23 -53 c-13 -29
-55 -128 -92 -220 -38 -92 -72 -168 -75 -168 -4 0 -7 200 -7 445 0 245 3 445
6 445 4 0 48 -101 99 -225z m1483 -420 l0 -425 -230 0 -230 0 0 425 0 425 230
0 230 0 0 -425z m-762 50 c41 -96 192 -463 192 -469 0 -3 -101 -6 -224 -6
l-224 0 28 68 c15 37 51 123 80 192 28 69 65 160 83 202 17 43 34 74 37 70 3
-4 16 -29 28 -57z m-485 -203 c59 -142 107 -261 107 -265 0 -4 -99 -7 -220 -7
-121 0 -220 3 -220 8 0 15 213 522 220 522 4 0 55 -116 113 -258z"/>
<path d="M1404 6420 c-65 -10 -148 -36 -196 -63 -43 -23 -44 -4 15 -232 l42
-160 217 -3 217 -2 7 22 c4 13 26 96 49 186 l42 163 -27 19 c-72 52 -257 87
-366 70z"/>
<path d="M1057 6245 c-90 -69 -171 -187 -207 -305 -12 -38 -23 -56 -36 -58
-15 -2 -19 -11 -18 -45 l1 -42 687 -3 686 -2 0 44 c0 33 -4 45 -16 48 -9 2
-28 37 -48 89 -39 104 -107 202 -182 264 -31 25 -59 45 -63 45 -5 0 -33 -87
-63 -192 l-54 -193 -259 0 -258 0 -14 40 c-7 22 -25 81 -39 130 -13 50 -32
118 -41 153 -10 34 -20 62 -24 62 -3 0 -27 -16 -52 -35z"/>
<path d="M880 5677 c0 -62 25 -151 67 -237 70 -146 235 -277 394 -315 75 -17
197 -19 271 -4 100 20 216 85 294 163 39 39 83 92 98 119 40 67 73 171 81 250
l7 67 -606 0 -606 0 0 -43z"/>
<path d="M569 5051 c-74 -24 -141 -71 -179 -126 -63 -91 -60 -41 -60 -1035 l0
-907 30 -61 c49 -97 154 -175 255 -189 l45 -6 0 -1062 c0 -721 3 -1080 11
-1121 29 -157 145 -274 304 -306 168 -33 348 70 416 239 l24 58 3 1098 3 1097
64 0 65 0 0 -1077 c0 -1162 0 -1144 53 -1235 138 -236 483 -249 633 -24 69
104 64 -42 64 1994 l0 1846 149 -147 c182 -180 220 -202 351 -202 142 0 149 5
485 344 343 345 350 355 350 495 -1 109 -20 160 -89 234 -99 105 -254 137
-381 79 -47 -22 -91 -59 -212 -179 l-153 -152 -157 156 c-210 206 -201 202
-492 203 l-214 0 -109 -175 c-60 -96 -112 -176 -117 -178 -4 -1 -57 76 -117
173 -60 96 -111 175 -114 175 -3 0 -39 -56 -80 -123 -41 -67 -91 -148 -111
-180 l-36 -59 -103 169 c-57 92 -110 176 -118 186 -13 15 -36 17 -211 16 -160
0 -206 -3 -252 -18z"/>
</g>
</svg>