<?xml version="1.0" standalone="no"?>
<!DOCTYPE svg PUBLIC "-//W3C//DTD SVG 20010904//EN"
 "http://www.w3.org/TR/2001/REC-SVG-20010904/DTD/svg10.dtd">
<svg version="1.0" xmlns="http://www.w3.org/2000/svg"
 width="203.000000pt" height="203.000000pt" viewBox="0 0 203.000000 203.000000"
 preserveAspectRatio="xMidYMid meet">

<g transform="translate(0.000000,203.000000) scale(0.02500000,-0.02500000)"
fill="#000000" stroke="none">
<path d="M3625 7699 c-266 -24 -588 -93 -857 -185 -155 -53 -372 -145 -424
-179 -37 -24 -92 -114 -105 -170 -23 -102 41 -224 136 -261 35 -13 65 -16 138
-12 96 5 94 5 372 108 404 150 879 215 1312 179 755 -61 1442 -378 1973 -909
810 -809 1112 -1987 793 -3090 -13 -47 -28 -89 -33 -94 -6 -6 -45 5 -102 29
-423 175 -433 178 -487 151 -33 -18 -51 -54 -51 -107 0 -69 270 -1449 291
-1491 29 -57 72 -80 137 -75 51 4 76 19 664 413 336 225 623 422 639 438 53
54 48 124 -13 169 -18 13 -154 75 -303 136 -148 62 -273 116 -278 120 -4 4 13
79 38 166 99 345 145 664 145 1017 1 1595 -1020 2995 -2544 3487 -246 80 -549
140 -810 161 -150 12 -487 11 -631 -1z"/>
<path d="M1035 6409 c-974 -454 -927 -431 -952 -468 -13 -19 -23 -45 -23 -59
0 -57 35 -88 248 -218 114 -70 224 -138 245 -151 l37 -23 -16 -38 c-65 -149
-155 -441 -198 -642 -59 -276 -71 -398 -70 -760 0 -310 2 -348 26 -505 126
-821 469 -1506 1038 -2075 478 -478 1057 -806 1705 -965 276 -68 475 -94 775
-102 531 -13 970 63 1455 254 248 98 291 128 343 242 45 97 26 204 -47 278
-49 49 -107 67 -194 60 -73 -5 -107 -16 -317 -101 -500 -203 -1098 -264 -1660
-170 -850 143 -1604 633 -2085 1354 -511 766 -658 1722 -401 2605 32 111 94
285 101 285 1 0 116 -69 254 -154 138 -85 267 -157 286 -160 53 -10 100 16
120 66 15 38 15 83 -5 627 -29 834 -33 910 -54 949 -24 47 -71 72 -131 72 -44
-1 -104 -26 -480 -201z"/>
<path d="M2076 6138 c-14 -20 -16 -214 -16 -1870 l0 -1848 -34 0 c-64 0 -66
-9 -66 -229 0 -179 2 -199 18 -214 17 -16 176 -17 2084 -17 1988 0 2066 1
2081 18 15 16 17 46 17 215 0 218 -3 227 -66 227 l-34 0 0 1848 c0 1656 -2
1850 -16 1870 l-15 22 -1969 0 -1969 0 -15 -22z m3874 -1898 l0 -1820 -1890 0
-1890 0 0 1820 0 1820 1890 0 1890 0 0 -1820z m108 -2047 l-3 -128 -1995 0
-1995 0 -3 128 -3 127 2001 0 2001 0 -3 -127z"/>
<path d="M2332 5888 c-17 -17 -17 -3279 0 -3296 9 -9 203 -12 810 -12 778 0
798 0 808 19 7 13 10 262 10 738 l0 718 90 90 c68 67 90 96 90 116 0 20 -22
47 -90 113 l-90 87 0 704 c0 626 -2 705 -16 719 -14 14 -101 16 -808 16 -603
0 -795 -3 -804 -12z m1528 -795 l0 -706 -200 -202 c-111 -112 -200 -210 -200
-220 0 -23 157 -184 188 -192 20 -5 38 8 111 81 47 47 90 86 94 86 4 0 7 -283
7 -630 l0 -630 -720 0 -720 0 0 1560 0 1560 720 0 720 0 0 -707z m128 -806
l32 -33 -180 -179 -180 -179 -35 34 -35 34 177 178 c98 98 180 178 183 178 4
0 20 -15 38 -33z"/>
<path d="M2703 5438 c-139 -139 -203 -210 -203 -225 0 -26 25 -53 48 -53 10 0
112 95 227 210 l210 210 -15 28 c-33 59 -49 49 -267 -170z"/>
<path d="M2947 5232 c-224 -224 -408 -414 -408 -422 -3 -41 17 -70 50 -70 9 0
201 186 428 412 425 425 438 439 401 476 -36 36 -51 24 -471 -396z"/>
<path d="M4176 5884 c-14 -14 -16 -176 -16 -1640 0 -1101 3 -1632 10 -1645 10
-19 30 -19 808 -19 607 0 801 3 810 12 17 17 17 3279 0 3296 -9 9 -201 12
-804 12 -707 0 -794 -2 -808 -16z m1524 -1644 l0 -1560 -720 0 -720 0 0 1560
0 1560 720 0 720 0 0 -1560z"/>
<path d="M4632 5437 c-138 -138 -202 -209 -202 -224 0 -26 25 -53 49 -53 17 0
431 408 431 426 0 21 -32 54 -53 54 -15 0 -84 -62 -225 -203z"/>
<path d="M4873 5228 c-227 -228 -413 -421 -413 -431 0 -22 35 -57 57 -57 23 0
832 808 840 839 8 33 -8 55 -43 59 -26 2 -70 -38 -441 -410z"/>
</g>
</svg>