<?xml version="1.0" standalone="no"?>
<!DOCTYPE svg PUBLIC "-//W3C//DTD SVG 20010904//EN"
 "http://www.w3.org/TR/2001/REC-SVG-20010904/DTD/svg10.dtd">
<svg version="1.0" xmlns="http://www.w3.org/2000/svg"
 width="200.000000pt" height="159.000000pt" viewBox="0 0 200.000000 159.000000"
 preserveAspectRatio="xMidYMid meet">

<g transform="translate(0.000000,200.000000) scale(0.100000,-0.100000)"
fill="#000000" stroke="none">
<path d="M1133 1840 c-89 -60 -164 -110 -167 -110 -3 0 -6 11 -6 25 0 24 -2
25 -65 25 l-65 0 0 -74 0 -73 -152 -104 -152 -104 104 -3 104 -3 278 186 c153
102 282 185 288 185 6 0 135 -83 288 -185 l278 -186 105 3 104 3 -378 258
c-208 142 -384 260 -390 263 -7 2 -85 -45 -174 -106z"/>
<path d="M1397 1503 c-31 -32 -57 -66 -57 -76 0 -10 30 -50 67 -89 41 -41 63
-72 57 -76 -19 -12 -487 -405 -516 -434 -21 -20 -28 -36 -28 -64 0 -31 8 -45
49 -85 42 -43 53 -49 90 -49 31 0 48 6 64 23 12 13 114 138 227 279 l205 257
91 -90 c50 -49 96 -89 101 -89 5 0 18 9 28 20 18 20 18 24 1 118 -10 53 -24
111 -31 127 -13 31 -264 285 -282 285 -5 0 -35 -26 -66 -57z"/>
<path d="M990 1492 c0 -5 12 -19 26 -33 36 -33 57 -77 50 -104 -7 -29 -69 -88
-100 -96 -31 -9 -81 14 -101 45 -46 69 -64 -15 -20 -91 35 -58 73 -77 160 -78
68 0 71 -1 105 -37 l35 -38 63 53 63 52 -43 37 -43 36 0 74 c-1 90 -19 128
-78 163 -42 24 -117 35 -117 17z"/>
<path d="M1403 919 c-35 -43 -63 -82 -63 -87 0 -4 37 -51 83 -103 79 -90 85
-94 128 -97 42 -3 48 0 92 45 49 49 60 90 37 133 -8 16 -179 167 -205 182 -5
3 -38 -30 -72 -73z m198 -150 c7 -14 5 -23 -11 -39 -16 -16 -25 -18 -39 -11
-28 16 -33 39 -11 61 22 22 45 17 61 -11z"/>
</g>
</svg>
